<?xml version="1.0" standalone="no"?>
<!DOCTYPE svg PUBLIC "-//W3C//DTD SVG 20010904//EN"
 "http://www.w3.org/TR/2001/REC-SVG-20010904/DTD/svg10.dtd">
<svg version="1.0" xmlns="http://www.w3.org/2000/svg"
 width="700.000000pt" height="700.000000pt" viewBox="0 0 700.000000 700.000000"
 preserveAspectRatio="xMidYMid meet">
<metadata>
Created by potrace 1.11, written by Peter Selinger 2001-2013
</metadata>
<g transform="translate(0.000000,700.000000) scale(0.100000,-0.100000)"
fill="#000000" stroke="none">
<path d="M3944 6502 c-77 -43 -146 -126 -202 -244 -39 -80 -95 -246 -108 -318
-35 -198 -39 -396 -9 -515 41 -164 106 -226 210 -200 141 36 297 330 349 660
22 135 15 360 -12 451 -36 116 -84 171 -157 179 -26 3 -51 -2 -71 -13z"/>
<path d="M1755 5493 c-78 -15 -115 -61 -115 -141 0 -142 130 -361 338 -571 46
-45 44 -61 -5 -61 -36 0 -378 -89 -517 -134 -442 -145 -728 -329 -831 -534
-59 -119 -55 -249 12 -376 36 -67 169 -200 260 -259 81 -52 261 -145 338 -172
28 -10 55 -22 60 -25 6 -4 22 -10 37 -14 15 -3 48 -25 75 -47 49 -43 143 -106
224 -152 37 -21 52 -38 77 -90 73 -148 277 -279 570 -366 107 -32 357 -85 452
-96 30 -4 57 -8 60 -10 3 -2 42 -6 86 -9 44 -4 91 -9 105 -11 126 -25 787 -25
999 0 19 3 58 7 85 10 28 4 64 8 80 10 97 10 262 40 370 66 44 11 91 22 105
25 46 10 254 81 327 113 194 84 344 202 395 312 15 32 33 52 57 65 85 44 155
88 216 134 38 30 111 70 182 100 219 94 352 178 464 291 101 103 146 190 154
306 19 240 -194 455 -647 652 -185 81 -662 212 -893 245 -23 4 -52 9 -65 11
-14 3 -41 7 -60 10 -19 3 -46 7 -60 9 -14 3 -49 8 -79 11 -30 4 -63 8 -73 10
-11 2 -47 7 -81 10 -34 4 -78 8 -97 10 -177 19 -173 19 -390 31 -264 16 -911
9 -1091 -11 -19 -2 -68 -6 -109 -9 l-75 -6 -55 77 c-61 85 -210 240 -310 323
-204 169 -458 285 -575 263z m2240 -827 c22 -3 74 -7 115 -10 42 -3 91 -8 110
-10 19 -3 73 -10 120 -16 47 -6 103 -13 125 -16 35 -4 266 -46 321 -58 493
-105 870 -286 997 -478 18 -29 41 -74 50 -100 30 -89 6 -210 -58 -294 l-25
-32 -47 48 c-129 129 -389 256 -712 347 -69 20 -127 37 -129 38 -1 1 15 29 36
61 58 89 75 133 80 199 3 50 0 65 -18 87 -81 103 -375 27 -673 -173 l-89 -60
-66 6 c-37 3 -89 7 -117 10 -151 14 -219 16 -443 16 -277 -1 -484 -9 -622 -26
-19 -2 -64 -7 -100 -10 -125 -13 -317 -41 -412 -61 -37 -7 -81 -16 -98 -19
-232 -41 -556 -146 -730 -238 -130 -68 -251 -164 -297 -234 l-15 -23 -35 42
c-82 98 -108 200 -78 304 49 172 204 302 530 444 11 5 49 19 85 30 36 12 72
25 80 28 8 3 20 6 25 7 6 2 42 12 80 23 39 12 112 30 163 42 l93 20 82 -49
c136 -82 247 -120 340 -118 75 2 112 23 134 75 15 36 14 117 -2 154 -10 24 19
29 280 44 61 4 112 8 113 9 6 5 764 -3 807 -9z m-50 -611 c33 -4 62 -9 64 -11
2 -2 -16 -24 -40 -48 -84 -83 -152 -173 -200 -265 l-34 -63 -305 -3 c-168 -2
-330 -6 -360 -9 -30 -3 -84 -8 -118 -11 -79 -7 -234 -28 -296 -41 -11 -2 -37
-7 -56 -10 -197 -32 -457 -115 -628 -200 l-132 -66 -63 22 c-34 13 -81 32
-103 42 -39 18 -41 21 -34 51 39 173 270 337 643 456 100 32 312 85 382 95 22
4 78 13 125 21 47 7 110 17 140 20 30 4 69 8 85 10 17 2 77 7 135 10 58 4 107
9 109 11 7 6 620 -4 686 -11z m1071 -255 c213 -100 325 -199 374 -328 23 -61
25 -59 -100 -107 l-93 -37 -107 51 c-141 67 -356 137 -510 167 -14 2 -32 7
-40 10 -18 7 -102 24 -150 31 -19 3 -50 8 -68 11 l-33 7 111 73 c61 40 156
111 211 157 l100 84 102 -35 c56 -20 148 -57 203 -84z m-1369 -251 c81 -2 94
-5 99 -22 3 -10 26 -28 51 -39 55 -24 120 -21 238 11 23 6 50 9 60 7 11 -2 38
-7 60 -11 22 -4 51 -9 65 -11 71 -13 275 -67 347 -93 101 -37 225 -98 265
-131 l31 -26 -89 -18 c-49 -9 -100 -19 -114 -22 -14 -2 -47 -9 -75 -14 -27 -5
-70 -12 -95 -15 -25 -3 -56 -8 -70 -10 -50 -8 -197 -25 -265 -30 -38 -3 -84
-8 -102 -10 -196 -24 -892 -24 -1098 0 -16 2 -59 6 -95 10 -90 8 -169 18 -325
41 -123 18 -138 21 -225 39 -38 8 -84 17 -102 20 -56 10 -62 18 -31 46 104 91
329 179 573 223 126 23 140 25 200 32 30 3 71 7 90 10 19 2 91 7 160 10 69 4
126 7 127 8 3 2 218 -1 320 -5z m1313 -539 c-53 -34 -391 -119 -575 -145 -22
-3 -51 -7 -65 -10 -24 -4 -47 -7 -170 -20 -190 -21 -362 -29 -615 -29 -220 -1
-473 8 -535 18 -23 4 -96 12 -195 22 -33 3 -129 17 -195 29 -8 1 -35 6 -60 10
-47 8 -234 50 -285 65 -16 5 -57 16 -90 25 -62 17 -107 44 -50 30 17 -4 41 -8
55 -10 21 -2 73 -10 130 -20 8 -1 40 -6 70 -10 30 -3 66 -8 80 -10 14 -2 54
-7 90 -10 36 -4 76 -8 90 -10 14 -2 63 -6 110 -10 47 -4 101 -9 120 -10 102
-11 388 -19 640 -20 391 0 693 17 990 55 41 5 98 12 125 15 28 3 59 8 70 10
11 2 43 7 70 11 28 3 77 12 110 19 76 17 106 19 85 5z m-215 -228 c-13 -11
-147 -70 -199 -87 -86 -28 -213 -64 -266 -74 -30 -6 -66 -14 -80 -16 -77 -16
-171 -31 -245 -39 -98 -12 -131 -15 -225 -21 -113 -7 -398 -8 -490 -1 -107 8
-224 18 -240 21 -9 2 -43 7 -75 11 -33 4 -62 8 -65 9 -3 1 -25 5 -50 9 -81 14
-284 66 -352 91 -73 27 -198 83 -198 90 0 5 46 -3 85 -15 38 -12 275 -55 381
-69 44 -7 90 -13 102 -16 11 -2 56 -6 99 -10 43 -3 94 -8 113 -11 193 -23 775
-22 930 1 14 2 54 6 90 10 36 3 76 8 90 10 14 2 45 7 70 10 55 8 73 10 180 29
117 21 173 32 260 55 90 23 97 24 85 13z"/>
<path d="M4919 1894 c-190 -33 -334 -127 -434 -284 -162 -251 -122 -596 89
-780 78 -69 216 -133 319 -148 141 -21 350 4 468 55 61 27 61 27 75 118 3 22
10 58 15 80 15 68 12 87 -13 83 -18 -2 -28 -19 -50 -82 -16 -43 -33 -85 -40
-93 -20 -25 -125 -73 -195 -89 -328 -76 -572 162 -559 546 2 58 6 114 9 125
20 83 33 118 63 175 88 167 230 248 413 237 103 -6 186 -35 232 -80 17 -18 47
-65 66 -105 25 -54 39 -72 51 -70 20 4 20 16 1 142 -15 101 -17 104 -126 141
-117 39 -263 50 -384 29z"/>
<path d="M1623 1888 c-14 -23 -12 -38 5 -39 10 0 28 -2 42 -4 14 -3 43 -6 65
-8 22 -1 45 -6 51 -10 7 -4 11 -174 11 -542 0 -481 -2 -535 -16 -536 -9 0 -25
-2 -36 -4 -11 -2 -42 -6 -70 -9 -45 -5 -53 -9 -58 -33 -1 -5 123 -9 276 -9
265 -2 277 -1 277 17 0 11 -8 20 -17 21 -10 0 -29 3 -43 4 -38 5 -93 11 -111
13 -15 1 -16 31 -16 277 l-1 277 62 -64 c79 -83 356 -394 428 -483 l57 -68
172 1 c128 0 175 4 180 13 10 16 -2 29 -32 32 -128 15 -125 14 -186 84 -32 37
-72 83 -89 102 -39 43 -61 68 -144 160 -36 40 -74 83 -85 94 -80 86 -215 235
-215 239 0 2 100 87 223 188 122 101 224 186 227 189 23 25 54 43 77 46 149
16 169 22 146 45 -13 13 -442 13 -455 1 -17 -17 13 -32 73 -38 35 -3 66 -7 68
-10 4 -3 -60 -66 -230 -228 -46 -44 -125 -119 -176 -168 -50 -48 -93 -88 -95
-88 -9 0 -6 470 3 476 11 6 32 10 109 19 50 5 75 19 65 36 -3 3 -119 6 -259 6
-140 0 -259 3 -264 7 -6 3 -14 1 -19 -6z"/>
<path d="M3520 1890 c-47 -3 -156 -5 -242 -3 -87 1 -160 -2 -163 -7 -12 -19
27 -37 96 -44 40 -3 76 -11 80 -17 9 -15 8 -1045 -2 -1060 -4 -7 -42 -17 -86
-23 -66 -9 -78 -14 -78 -30 0 -18 11 -19 315 -17 349 2 400 9 502 63 67 36
131 105 154 169 10 26 16 75 17 121 0 63 -5 87 -27 131 -46 95 -143 160 -273
183 -40 8 -40 11 4 23 48 13 114 56 142 93 54 68 66 175 31 255 -45 102 -146
157 -300 162 -41 1 -77 3 -80 4 -3 1 -43 0 -90 -3z m177 -77 c51 -17 109 -74
124 -122 6 -18 9 -64 7 -100 -10 -139 -101 -211 -281 -224 -36 -3 -60 0 -65 7
-7 12 -11 435 -4 449 6 13 173 5 219 -10z m40 -517 c154 -51 219 -196 169
-370 -25 -85 -104 -152 -204 -173 -46 -10 -214 -6 -221 5 -8 14 -7 534 1 548
11 16 197 9 255 -10z"/>
</g>
</svg>
